# xmcd CD database file
#
# Track frame offsets:
#	150
#	18092
#	36150
#	51642
#	64342
#	75487
#	93255
#	109587
#	124320
#	137597
#	153412
#	166257
#	178302
#	193140
#	210505
#	225482
#	239125
#	251432
#
# Disc length: 3509 seconds
#
# Revision: 4
# Processed by: cddbd v1.5.2PL0 Copyright (c) Steve Scherf et al.
# Submitted via: CDex 1.51
#
DISCID=f70db312
DTITLE=Various Artist - Golden Country Groups - Disc 1
DYEAR=1988
DGENRE=Country
TTITLE0=Alabama - Dixieland Delight
TTITLE1=Crystal Gayle And Eddie Rabbit - You And I
TTITLE2=The Statler Brothers - Elizabeth
TTITLE3=Dolly Parton And Porter Wagoner - Please Don't Stop Loving Me
TTITLE4=The Forester Sisters - Just In Case
TTITLE5=The Bellamy Brothers - For All The Wrong Reasons
TTITLE6=Alabama - The Closer You Get
TTITLE7=Barbara Mandrell And Lee Greenwood - To Me
TTITLE8=The Kendalls - Thank God For The Radio
TTITLE9=Crystal Gayle And Gary Morris - Makin' Up For Lost Time (The Dallas Lovers' Song)
TTITLE10=Waylon Jennings And Willie Nelson - Just To Satisfy You
TTITLE11=Loretta Lynn And Conway Twitty - After The Fire Is Gone
TTITLE12=The Forester Sisters - I Fell in Love Again Last Night
TTITLE13=The Bellamy Brothers And The Forester Sisters - Too Much Is Not Enough
TTITLE14=Alabama - Love In The First Degree
TTITLE15=Tompall And The Glaser Brothers - Lovin' Her Was Easier
TTITLE16=The Whites - I Wonder Who's Holding My Baby Tonight
TTITLE17=Dave Rowland And Sugar - Fool By Your Side
EXTD=YEAR: 1988
EXTT0=
EXTT1=
EXTT2=
EXTT3=
EXTT4=
EXTT5=
EXTT6=
EXTT7=
EXTT8=
EXTT9=
EXTT10=
EXTT11=
EXTT12=
EXTT13=
EXTT14=
EXTT15=
EXTT16=
EXTT17=
PLAYORDER=
